<svg xmlns="http://www.w3.org/2000/svg" viewBox="0 0 128 128" role="img" aria-label="Ÿ„›(5ï">
  <defs>
    <linearGradient id="pcb" x1="0%" y1="0%" x2="100%" y2="100%">
      <stop offset="0%" stop-color="#1a5c38"/>
      <stop offset="100%" stop-color="#0d3a24"/>
    </linearGradient>
    <linearGradient id="chip" x1="0%" y1="0%" x2="0%" y2="100%">
      <stop offset="0%" stop-color="#2a2a32"/>
      <stop offset="100%" stop-color="#121218"/>
    </linearGradient>
  </defs>
  <rect x="8" y="14" width="112" height="100" rx="6" fill="url(#pcb)" stroke="#3d8f5c" stroke-width="2"/>
  <path d="M20 30 H108 M20 50 H90 M38 70 H108 M20 90 H76" stroke="#2d7a4e" stroke-width="1.5" fill="none" opacity="0.7"/>
  <circle cx="28" cy="30" r="3" fill="#c9a227"/>
  <circle cx="100" cy="50" r="3" fill="#c9a227"/>
  <circle cx="76" cy="90" r="3" fill="#c9a227"/>
  <rect x="34" y="38" width="28" height="22" rx="2" fill="url(#chip)" stroke="#4a4a58"/>
  <rect x="68" y="58" width="36" height="26" rx="2" fill="url(#chip)" stroke="#4a4a58"/>
  <rect x="42" y="72" width="18" height="14" rx="1" fill="#1e1e26" stroke="#555"/>
  <path d="M14 40 v16 M14 72 v16 M114 36 v12 M114 68 v20" stroke="#8a9a6a" stroke-width="4" stroke-linecap="round"/>
  <text x="64" y="118" text-anchor="middle" fill="#7ab892" font-size="8" font-family="monospace">MIL-SCRAP PCB</text>
</svg>
